<?xml version="1.0" standalone="no"?>
<!DOCTYPE svg PUBLIC "-//W3C//DTD SVG 20010904//EN"
 "http://www.w3.org/TR/2001/REC-SVG-20010904/DTD/svg10.dtd">
<svg version="1.0" xmlns="http://www.w3.org/2000/svg"
 width="1080.000000pt" height="1080.000000pt" viewBox="0 0 1080.000000 1080.000000"
 preserveAspectRatio="xMidYMid meet">

<g transform="translate(0.000000,1080.000000) scale(0.100000,-0.100000)"
fill="#000000" stroke="none">
<path d="M5403 9438 c-25 -39 -131 -228 -153 -273 -8 -16 -17 -32 -20 -35 -3
-3 -10 -14 -16 -25 -6 -11 -30 -56 -54 -100 -24 -44 -53 -98 -64 -120 -12 -22
-24 -42 -27 -45 -6 -5 -64 -110 -111 -199 -16 -30 -33 -60 -37 -66 -5 -5 -32
-55 -61 -110 -29 -55 -56 -104 -60 -110 -4 -5 -28 -46 -52 -90 -25 -44 -54
-97 -66 -118 -27 -46 -27 -65 -3 -91 10 -12 53 -72 95 -134 73 -107 77 -114
59 -127 -10 -8 -27 -15 -37 -15 -11 0 -47 -9 -80 -20 -110 -37 -122 -40 -148
-40 -16 0 -36 11 -50 28 -69 78 -418 413 -426 408 -5 -3 -13 -29 -17 -58 -4
-29 -12 -82 -17 -118 -5 -36 -11 -92 -14 -125 -3 -33 -10 -64 -15 -69 -5 -6
-9 -35 -9 -66 0 -31 -4 -60 -9 -66 -5 -5 -11 -24 -13 -43 -4 -39 -16 -46 -182
-87 -80 -20 -101 -22 -107 -12 -5 7 -9 83 -9 169 0 109 -4 160 -12 171 -15 19
-268 186 -318 210 -19 10 -158 98 -308 198 -150 99 -278 180 -283 180 -13 0
-5 -26 32 -107 16 -34 39 -88 53 -120 13 -32 43 -97 65 -145 23 -48 41 -90 41
-92 0 -3 11 -29 24 -58 13 -29 33 -73 44 -98 11 -25 30 -67 42 -95 12 -27 28
-63 35 -80 7 -16 23 -52 35 -80 13 -27 37 -84 55 -125 18 -41 45 -102 60 -135
15 -33 34 -76 42 -95 8 -19 23 -53 33 -75 50 -111 60 -136 60 -145 0 -5 12
-35 26 -67 14 -32 32 -73 40 -90 19 -46 38 -88 74 -167 30 -67 31 -68 62 -62
17 3 45 13 61 21 17 8 37 15 47 15 9 0 20 4 26 8 5 5 29 14 54 21 25 7 53 17
62 22 10 5 27 9 37 9 11 0 23 5 26 10 3 6 19 10 35 10 16 0 32 5 35 10 3 6 19
10 35 10 16 0 32 5 35 10 3 6 21 10 40 10 19 0 37 5 40 10 3 6 18 10 32 10 15
0 40 4 57 9 106 32 335 75 546 101 242 30 325 34 655 33 373 0 531 -11 815
-54 177 -27 383 -66 418 -80 13 -5 36 -9 52 -9 16 0 32 -4 35 -10 3 -5 21 -10
40 -10 19 0 37 -4 40 -10 3 -5 22 -10 41 -10 19 0 34 -4 34 -10 0 -5 10 -10
21 -10 19 0 123 -30 174 -51 11 -4 45 -17 77 -28 l56 -20 16 24 c9 13 16 29
16 34 0 5 8 26 19 48 18 37 35 75 80 175 12 26 21 52 21 57 0 5 18 48 40 95
22 47 40 88 40 90 0 6 196 449 241 544 16 35 29 65 29 67 0 2 11 29 25 60 14
30 36 80 50 110 14 31 25 57 25 60 0 2 13 32 29 67 30 65 56 123 97 218 14 30
33 72 44 93 11 22 20 48 20 58 0 17 -3 18 -20 9 -24 -13 -350 -225 -432 -281
-31 -22 -59 -39 -63 -39 -3 0 -25 -13 -48 -29 -40 -27 -92 -58 -147 -88 -14
-7 -63 -39 -110 -70 l-85 -58 -3 -160 c-1 -88 -6 -163 -11 -168 -9 -9 -87 8
-213 44 -58 17 -68 23 -68 42 0 13 -4 27 -9 33 -5 5 -12 32 -15 59 -8 81 -17
129 -26 150 -5 11 -11 38 -14 60 -3 22 -10 65 -16 95 -6 30 -13 70 -17 88 -3
18 -8 34 -12 37 -10 6 -44 -27 -141 -135 -47 -52 -110 -122 -141 -155 -31 -33
-74 -81 -95 -107 -42 -50 -66 -57 -128 -39 -17 5 -56 15 -86 21 -117 24 -150
34 -150 45 0 7 43 76 95 154 52 78 95 148 95 155 0 15 -53 120 -145 286 -96
175 -103 187 -156 288 -29 53 -55 102 -59 107 -4 6 -31 55 -61 110 -29 55 -72
135 -96 179 -24 43 -43 82 -43 86 0 5 -3 10 -7 12 -5 2 -32 50 -62 108 -99
192 -109 206 -128 178z"/>
<path d="M5116 6823 c-4 -4 -58 -11 -119 -15 -313 -22 -689 -85 -972 -164 -33
-9 -78 -20 -100 -24 -22 -5 -56 -13 -75 -19 -71 -20 -116 -33 -150 -40 -97
-23 -107 -42 -71 -123 11 -24 27 -60 36 -80 9 -21 22 -38 30 -38 8 0 45 15 82
33 38 18 102 43 143 56 41 13 83 27 92 32 10 5 29 9 42 9 14 0 27 4 30 9 3 5
20 11 38 14 18 3 54 11 81 16 199 45 308 63 487 81 58 6 112 12 120 15 28 8
414 25 620 27 184 1 540 -16 581 -28 9 -2 56 -9 105 -14 161 -18 317 -46 449
-79 104 -26 132 -33 163 -38 18 -3 35 -9 38 -14 3 -5 14 -9 25 -9 10 0 27 -4
37 -9 9 -5 37 -15 62 -22 25 -7 76 -26 114 -41 105 -43 105 -42 155 61 24 50
40 94 37 100 -9 14 -66 41 -87 41 -10 0 -21 5 -24 10 -3 6 -19 10 -35 10 -16
0 -31 4 -34 9 -3 5 -18 11 -33 14 -48 10 -105 25 -198 51 -79 23 -171 46 -310
77 -130 29 -335 61 -525 81 -118 12 -823 22 -834 11z"/>
<path d="M5035 6519 c-60 -5 -157 -13 -215 -19 -58 -6 -130 -13 -160 -16 -30
-3 -64 -9 -75 -14 -11 -5 -42 -11 -70 -14 -126 -12 -499 -103 -567 -137 -10
-5 -25 -9 -33 -9 -8 0 -23 -4 -33 -9 -9 -5 -38 -15 -64 -22 -26 -7 -56 -20
-67 -29 -23 -17 -37 6 135 -228 57 -78 68 -99 58 -109 -7 -7 -17 -13 -22 -13
-17 0 -91 -78 -112 -119 -16 -33 -20 -59 -20 -142 0 -57 5 -119 12 -138 17
-49 91 -154 125 -176 15 -10 34 -25 41 -32 7 -7 38 -29 68 -49 30 -20 57 -40
60 -45 3 -5 -54 -9 -135 -9 -77 0 -142 -4 -146 -9 -5 -9 113 -159 170 -217 11
-11 45 -50 75 -87 30 -37 62 -67 70 -67 17 0 40 51 40 88 0 11 5 24 10 27 6 3
10 15 10 26 0 10 4 27 9 37 5 9 26 60 47 112 64 160 163 346 231 430 76 96
135 154 216 214 66 50 49 70 -78 91 -143 23 -312 116 -438 240 -67 66 -127
144 -127 164 0 15 63 45 148 70 97 29 287 30 377 2 159 -49 263 -112 390 -233
33 -32 68 -58 77 -58 25 0 110 39 135 62 39 37 46 16 39 -111 -17 -306 -36
-430 -76 -491 -16 -25 -27 -48 -49 -103 -20 -50 -14 -153 11 -191 43 -65 145
-110 236 -104 l47 3 7 315 c4 173 9 385 13 470 3 85 6 209 8 275 l2 120 59 0
c42 0 61 -4 67 -15 4 -8 21 -44 37 -80 16 -36 45 -79 63 -96 30 -27 84 -54
111 -54 4 0 44 36 87 80 43 44 85 80 94 80 8 0 17 4 19 8 3 7 62 38 158 80 44
20 150 54 220 72 19 4 54 13 76 19 23 6 55 11 72 11 33 0 50 16 35 31 -17 17
-203 52 -413 79 -355 46 -761 60 -1065 39z"/>
<path d="M6745 5991 c-6 -5 -30 -21 -55 -35 -256 -148 -546 -213 -757 -170
-22 4 -33 3 -33 -5 0 -12 66 -95 149 -187 25 -29 67 -76 93 -105 116 -134 145
-162 156 -155 8 5 12 45 12 125 0 130 -6 117 70 149 147 61 256 128 312 191
72 82 88 113 88 166 0 35 -15 45 -35 26z"/>
<path d="M5225 5041 c-3 -6 -29 -11 -57 -11 -29 0 -65 -4 -82 -9 -17 -5 -74
-19 -126 -32 -109 -25 -258 -78 -337 -120 -30 -16 -61 -29 -69 -29 -8 0 -14
-4 -14 -10 0 -5 -7 -10 -16 -10 -8 0 -35 -13 -59 -30 -24 -16 -48 -30 -53 -30
-12 0 -52 -44 -52 -58 0 -7 7 -12 15 -12 17 0 20 -21 6 -36 -14 -13 -103 -183
-122 -229 -19 -49 -48 -145 -59 -195 -6 -30 -16 -68 -21 -85 -14 -42 -23 -231
-15 -289 7 -46 21 -56 37 -25 4 8 29 70 54 139 42 109 99 235 115 250 3 3 11
17 19 32 52 102 202 247 257 248 11 0 25 5 32 12 20 20 26 0 15 -53 -13 -67
-4 -74 94 -82 118 -9 239 10 338 53 11 4 35 14 53 22 17 7 32 16 32 20 0 5 6
8 13 8 6 0 25 10 40 23 16 12 49 39 75 60 26 20 49 37 53 37 3 0 26 -17 50
-38 49 -43 150 -112 189 -128 78 -34 90 -39 186 -63 82 -22 254 -6 276 24 4 5
8 38 8 73 l0 63 32 -18 c43 -24 216 -196 254 -253 86 -126 184 -353 184 -427
0 -38 18 -26 31 20 24 89 -3 347 -53 492 -25 74 -99 225 -110 225 -4 0 -8 6
-8 13 -1 6 -14 27 -30 46 -34 40 -26 61 21 61 114 0 -129 158 -366 238 -119
41 -289 82 -334 82 -21 0 -41 4 -47 9 -17 17 -439 37 -449 22z"/>
<path d="M7000 4957 c-8 -12 -42 -67 -75 -122 -34 -55 -86 -138 -115 -185
-119 -190 -123 -198 -116 -233 17 -91 36 -295 36 -393 0 -104 -18 -264 -41
-364 -6 -25 -13 -57 -16 -73 -3 -15 -9 -30 -14 -33 -5 -3 -9 -13 -9 -22 0 -31
-74 -163 -122 -215 l-47 -52 -88 90 c-266 270 -471 389 -793 459 -149 32 -345
15 -534 -49 -43 -14 -81 -24 -83 -21 -9 9 78 89 142 132 125 82 183 97 380 97
133 0 206 -8 285 -31 19 -6 46 -14 60 -17 43 -11 98 -34 179 -74 35 -17 68
-31 73 -31 6 0 22 -8 36 -18 35 -24 72 -34 72 -19 0 28 -177 208 -276 282 -58
44 -190 115 -212 115 -7 0 -20 4 -30 9 -51 26 -105 33 -240 33 -89 0 -149 -5
-155 -11 -6 -6 -21 -11 -34 -11 -12 0 -35 -5 -50 -11 -15 -6 -37 -15 -48 -19
-85 -33 -273 -141 -295 -169 -17 -22 -73 -60 -81 -55 -5 3 -9 40 -9 82 0 83
-9 152 -19 152 -3 -1 -22 -21 -41 -46 -19 -25 -43 -55 -53 -67 -23 -27 -87
-135 -87 -147 0 -4 -3 -10 -7 -12 -26 -11 -203 -412 -203 -459 0 -10 -4 -21
-10 -24 -5 -3 -10 -19 -10 -35 0 -16 -4 -32 -10 -35 -5 -3 -10 -15 -10 -26 0
-24 -18 -25 -36 -1 -35 44 -102 152 -123 197 -35 75 -37 80 -71 213 -38 151
-34 439 10 646 10 50 10 52 -31 126 -13 23 -108 174 -242 383 -27 42 -55 77
-62 77 -35 0 -315 -345 -315 -389 0 -6 -3 -11 -7 -11 -11 0 -57 -101 -108
-235 -15 -38 -31 -79 -35 -90 -5 -11 -11 -31 -15 -45 -3 -14 -11 -41 -16 -60
-44 -151 -82 -422 -66 -463 4 -12 35 0 149 56 79 40 145 75 146 79 2 5 11 8
21 8 9 0 22 5 29 12 23 23 24 -2 4 -84 -34 -136 -42 -207 -42 -369 0 -189 22
-320 81 -494 24 -70 70 -169 81 -173 4 -2 8 -9 8 -16 0 -7 8 -20 18 -29 17
-16 22 -15 68 18 90 64 103 74 359 280 17 14 35 25 41 25 6 0 22 -28 34 -62
12 -35 31 -75 41 -90 11 -14 19 -31 19 -36 0 -12 98 -102 166 -153 106 -78
270 -151 436 -193 106 -28 162 -52 223 -100 96 -74 175 -194 230 -351 43 -122
56 -218 62 -430 2 -99 7 -183 12 -188 10 -10 195 112 321 211 92 73 266 227
322 285 175 182 330 383 414 537 10 19 22 37 27 38 4 2 7 12 7 22 0 10 4 20 8
22 8 3 59 107 82 168 7 19 17 40 22 46 13 18 58 147 58 169 1 11 6 30 13 42
l12 22 47 -37 c26 -20 90 -73 143 -117 52 -44 116 -97 142 -118 l48 -37 23 27
c43 53 118 224 154 353 30 107 51 262 51 375 0 108 -23 282 -43 330 -5 11 -11
34 -13 50 -2 17 -8 38 -12 48 -12 27 10 21 83 -27 185 -119 245 -155 253 -150
14 8 10 201 -5 305 -23 150 -85 382 -109 405 -4 4 -7 13 -7 20 0 7 -14 44 -31
81 -17 37 -36 79 -42 93 -46 104 -266 384 -326 415 -25 12 -28 12 -41 -8z"/>
</g>
</svg>
